<svg version="1.1" xmlns="http://www.w3.org/2000/svg" viewBox="-69.63943588702963 -6.340244025664707 139.27922261348064 12.680512799863918" fill="none" stroke="black" stroke-width="0.6%" vector-effect="non-scaling-stroke">
    <path d="M 60.10425 -5.23694 A 5 0.35271 0 0 1 68.63979 -4.98754 A 5 0.35271 0 0 1 58.63979 -4.98754 A 5 0.35271 0 0 1 60.10425 -5.23694 Z" />
    <path d="M 58.63979 4.98755 A 5 0.35271 180 0 0 68.63979 4.98755" />
    <path d="M 45.96211 -5.23694 A 5 0.35271 0 0 1 54.49765 -4.98754 A 5 0.35271 0 0 1 44.49765 -4.98754 A 5 0.35271 0 0 1 45.96211 -5.23694 Z" />
    <path d="M 44.49765 4.98755 A 5 0.35271 180 0 0 54.49765 4.98755" />
    <path d="M 31.81998 -5.23694 A 5 0.35271 0 0 1 40.35551 -4.98754 A 5 0.35271 0 0 1 30.35551 -4.98754 A 5 0.35271 0 0 1 31.81998 -5.23694 Z" />
    <path d="M 30.35551 4.98755 A 5 0.35271 180 0 0 40.35551 4.98755" />
    <path d="M 17.67784 -5.23693 A 5 0.35271 0 0 1 26.21338 -4.98753 A 5 0.35271 0 0 1 16.21338 -4.98753 A 5 0.35271 0 0 1 17.67784 -5.23693 Z" />
    <path d="M 16.21338 4.98755 A 5 0.35271 180 0 0 26.21338 4.98755" />
    <path d="M 3.5357 -5.23693 A 5 0.35271 0 0 1 12.07124 -4.98753 A 5 0.35271 0 0 1 2.07124 -4.98753 L 2.07124 4.98756 A 5 0.35271 180 0 0 12.07124 4.98756" />
    <path d="M 2.07124 -4.98753 A 5 0.35271 0 0 1 3.5357 -5.23693" />
    <path d="M -10.60643 -5.23693 A 5 0.35271 0 0 1 -2.07089 -4.98753 L -2.07089 4.98756" />
    <path d="M -2.07089 -4.98753 A 5 0.35271 0 0 1 -12.07089 -4.98753 L -12.07089 4.98756 A 5 0.35271 180 0 0 -2.07089 4.98756" />
    <path d="M -12.07089 -4.98753 A 5 0.35271 0 0 1 -10.60643 -5.23693" />
    <path d="M -24.74857 -5.23693 A 5 0.35271 0 0 1 -16.21303 -4.98753 L -16.21303 4.98756" />
    <path d="M -16.21303 -4.98753 A 5 0.35271 0 0 1 -26.21303 -4.98753 L -26.21303 4.98756 A 5 0.35271 180 0 0 -16.21303 4.98756" />
    <path d="M -26.21303 -4.98753 A 5 0.35271 0 0 1 -24.74857 -5.23693" />
    <path d="M -38.8907 -5.23693 A 5 0.35271 0 0 1 -30.35516 -4.98753 L -30.35516 4.98756" />
    <path d="M -30.35516 -4.98753 A 5 0.35271 0 0 1 -40.35516 -4.98753 L -40.35516 4.98756 A 5 0.35271 180 0 0 -30.35516 4.98756" />
    <path d="M -40.35516 -4.98753 A 5 0.35271 0 0 1 -38.8907 -5.23693" />
    <path d="M -67.17497 -5.23693 A 5 0.35271 0 0 1 -58.63943 -4.98753 L -58.63943 4.98756" />
    <path d="M -58.63943 -4.98753 A 5 0.35271 0 0 1 -68.63943 -4.98753 L -68.63943 4.98756 A 5 0.35271 180 0 0 -58.63943 4.98756" />
    <path d="M -68.63943 -4.98753 A 5 0.35271 0 0 1 -67.17497 -5.23693" />
    <path d="M -53.03284 -5.23693 A 5 0.35271 0 0 1 -44.4973 -4.98753 L -44.4973 4.98756" />
    <path d="M -44.4973 -4.98753 A 5 0.35271 0 0 1 -54.4973 -4.98753 L -54.4973 4.98756 A 5 0.35271 180 0 0 -44.4973 4.98756" />
    <path d="M -54.4973 -4.98753 A 5 0.35271 0 0 1 -53.03284 -5.23693" />
    <path d="M 58.63979 -4.98754 L 58.63979 4.98755" />
    <path d="M 68.63979 -4.98754 L 68.63979 4.98755" />
    <path d="M 44.49765 -4.98754 L 44.49765 4.98755" />
    <path d="M 54.49765 -4.98754 L 54.49765 4.98755" />
    <path d="M 30.35551 -4.98754 L 30.35551 4.98755" />
    <path d="M 40.35551 -4.98754 L 40.35551 4.98755" />
    <path d="M 16.21338 -4.98753 L 16.21338 4.98755" />
    <path d="M 26.21338 -4.98753 L 26.21338 4.98755" />
    <path d="M 12.07124 -4.98753 L 12.07124 4.98756" />
</svg>