<svg version="1.1" xmlns="http://www.w3.org/2000/svg" viewBox="-66.63943579783825 -5.112925645394846 133.27922261346765 10.225872379061087" fill="none" stroke="black" stroke-width="0.6%" vector-effect="non-scaling-stroke">
    <path d="M 62.22557 -4.07773 A 2 0.12016 360 0 1 65.63979 -3.99277 A 2 0.12016 360 0 1 61.63979 -3.99277 A 2 0.12016 360 0 1 62.22557 -4.07773 Z" />
    <path d="M 61.63979 3.99278 A 2 0.12016 180 1 0 65.63979 3.99278" />
    <path d="M 48.08343 -4.07773 A 2 0.12016 360 0 1 51.49765 -3.99277 A 2 0.12016 360 0 1 47.49765 -3.99277 A 2 0.12016 360 0 1 48.08343 -4.07773 Z" />
    <path d="M 47.49765 3.99278 A 2 0.12016 180 1 0 51.49765 3.99278" />
    <path d="M 33.9413 -4.07773 A 2 0.12016 360 0 1 37.35551 -3.99277 A 2 0.12016 360 0 1 33.35551 -3.99277 A 2 0.12016 360 0 1 33.9413 -4.07773 Z" />
    <path d="M 33.35551 3.99278 A 2 0.12016 180 1 0 37.35551 3.99278" />
    <path d="M 19.79916 -4.07773 A 2 0.12016 360 0 1 23.21338 -3.99277 A 2 0.12016 360 0 1 19.21338 -3.99277 A 2 0.12016 360 0 1 19.79916 -4.07773 Z" />
    <path d="M 19.21338 3.99278 A 2 0.12016 180 1 0 23.21338 3.99278" />
    <path d="M 5.65703 -4.07773 A 2 0.12016 360 0 1 9.07124 -3.99276 A 2 0.12016 360 0 1 5.07124 -3.99276 L 5.07124 3.99278 A 2 0.12016 180 1 0 9.07124 3.99278" />
    <path d="M 5.07124 -3.99276 A 2 0.12016 360 0 1 5.65703 -4.07773" />
    <path d="M -8.48511 -4.07773 A 2 0.12016 360 0 1 -5.07089 -3.99276 L -5.07089 3.99279" />
    <path d="M -5.07089 -3.99276 A 2 0.12016 360 0 1 -9.07089 -3.99276 L -9.07089 3.99279 A 2 0.12016 180 1 0 -5.07089 3.99279" />
    <path d="M -9.07089 -3.99276 A 2 0.12016 360 0 1 -8.48511 -4.07773" />
    <path d="M -22.62724 -4.07773 A 2 0.12016 360 0 1 -19.21303 -3.99276 L -19.21303 3.99279" />
    <path d="M -19.21303 -3.99276 A 2 0.12016 360 0 1 -23.21303 -3.99276 L -23.21303 3.99279 A 2 0.12016 180 1 0 -19.21303 3.99279" />
    <path d="M -23.21303 -3.99276 A 2 0.12016 360 0 1 -22.62724 -4.07773" />
    <path d="M -36.76938 -4.07772 A 2 0.12016 360 0 1 -33.35516 -3.99276 L -33.35516 3.99279" />
    <path d="M -33.35516 -3.99276 A 2 0.12016 360 0 1 -37.35516 -3.99276 L -37.35516 3.99279 A 2 0.12016 180 1 0 -33.35516 3.99279" />
    <path d="M -37.35516 -3.99276 A 2 0.12016 360 0 1 -36.76938 -4.07772" />
    <path d="M -65.05365 -4.07772 A 2 0.12016 360 0 1 -61.63943 -3.99276 L -61.63943 3.99279" />
    <path d="M -61.63943 -3.99276 A 2 0.12016 360 0 1 -65.63943 -3.99276 L -65.63943 3.99279 A 2 0.12016 180 1 0 -61.63943 3.99279" />
    <path d="M -65.63943 -3.99276 A 2 0.12016 360 0 1 -65.05365 -4.07772" />
    <path d="M -50.91151 -4.07772 A 2 0.12016 360 0 1 -47.4973 -3.99276 L -47.4973 3.99279" />
    <path d="M -47.4973 -3.99276 A 2 0.12016 360 0 1 -51.4973 -3.99276 L -51.4973 3.99279 A 2 0.12016 180 1 0 -47.4973 3.99279" />
    <path d="M -51.4973 -3.99276 A 2 0.12016 360 0 1 -50.91151 -4.07772" />
    <path d="M 61.63979 -3.99277 L 61.63979 3.99278" />
    <path d="M 65.63979 -3.99277 L 65.63979 3.99278" />
    <path d="M 47.49765 -3.99277 L 47.49765 3.99278" />
    <path d="M 51.49765 -3.99277 L 51.49765 3.99278" />
    <path d="M 33.35551 -3.99277 L 33.35551 3.99278" />
    <path d="M 37.35551 -3.99277 L 37.35551 3.99278" />
    <path d="M 19.21338 -3.99277 L 19.21338 3.99278" />
    <path d="M 23.21338 -3.99277 L 23.21338 3.99278" />
    <path d="M 9.07124 -3.99276 L 9.07124 3.99278" />
</svg>