<svg version="1.1" xmlns="http://www.w3.org/2000/svg" viewBox="-6.000001 -6.000001 102.000002 102.000002" fill="none" stroke="black" stroke-width="0.6%" vector-effect="non-scaling-stroke">
    <path d="M 85 85 L 95 85 L 95 95 L 85 95 L 85 85 L 75 85 L 75 75 L 85 75 L 85 85 Z" />
    <path d="M 65 65 L 75 65 L 75 75 L 65 75 L 65 65 L 55 65 L 55 55 L 45 55 L 45 45 L 55 45 L 55 55 L 65 55 L 65 65 Z" />
    <path d="M 35 35 L 45 35 L 45 45 L 35 45 L 35 35 L 25 35 L 25 25 L 35 25 L 35 35 Z" />
    <path d="M 15 15 L 25 15 L 25 25 L 15 25 L 15 15 L 5 15 L 5 5 L -5 5 L -5 -5 L 5 -5 L 5 5 L 15 5 L 15 15 Z" />
</svg>