<svg version="1.1" xmlns="http://www.w3.org/2000/svg" viewBox="-66.63961130678928 -5.112918769216095 133.27922261357858 10.225837538432188" fill="none" stroke="black" stroke-width="0.6%" vector-effect="non-scaling-stroke">
    <path d="M 62.2254 -4.07773 A 2 0.12014 360 0 1 65.63961 -3.99278 A 2 0.12014 360 0 1 61.63961 -3.99278 A 2 0.12014 360 0 1 62.2254 -4.07773 Z" />
    <path d="M 61.63961 3.99278 A 2 0.12014 180 0 0 65.63961 3.99278" />
    <path d="M 48.08326 -4.07773 A 2 0.12014 360 0 1 51.49747 -3.99278 A 2 0.12014 360 0 1 47.49747 -3.99278 A 2 0.12014 360 0 1 48.08326 -4.07773 Z" />
    <path d="M 47.49747 3.99278 A 2 0.12014 180 0 0 51.49747 3.99278" />
    <path d="M 33.94113 -4.07773 A 2 0.12014 360 0 1 37.35534 -3.99278 A 2 0.12014 360 0 1 33.35534 -3.99278 A 2 0.12014 360 0 1 33.94113 -4.07773 Z" />
    <path d="M 33.35534 3.99278 A 2 0.12014 180 0 0 37.35534 3.99278" />
    <path d="M 19.79899 -4.07773 A 2 0.12014 360 0 1 23.2132 -3.99278 A 2 0.12014 360 0 1 19.2132 -3.99278 A 2 0.12014 360 0 1 19.79899 -4.07773 Z" />
    <path d="M 19.2132 3.99278 A 2 0.12014 180 0 0 23.2132 3.99278" />
    <path d="M 5.65685 -4.07773 A 2 0.12014 360 0 1 9.07107 -3.99278 A 2 0.12014 360 0 1 5.07107 -3.99278 L 5.07107 3.99278 A 2 0.12014 180 0 0 9.07107 3.99278" />
    <path d="M 5.07107 -3.99278 A 2 0.12014 360 0 1 5.65685 -4.07773" />
    <path d="M -8.48528 -4.07773 A 2 0.12014 360 0 1 -5.07107 -3.99278 L -5.07107 3.99278" />
    <path d="M -5.07107 -3.99278 A 2 0.12014 360 0 1 -9.07107 -3.99278 L -9.07107 3.99278 A 2 0.12014 180 0 0 -5.07107 3.99278" />
    <path d="M -9.07107 -3.99278 A 2 0.12014 360 0 1 -8.48528 -4.07773" />
    <path d="M -22.62742 -4.07773 A 2 0.12014 360 0 1 -19.2132 -3.99278 L -19.2132 3.99278" />
    <path d="M -19.2132 -3.99278 A 2 0.12014 360 0 1 -23.2132 -3.99278 L -23.2132 3.99278 A 2 0.12014 180 0 0 -19.2132 3.99278" />
    <path d="M -23.2132 -3.99278 A 2 0.12014 360 0 1 -22.62742 -4.07773" />
    <path d="M -36.76955 -4.07773 A 2 0.12014 360 0 1 -33.35534 -3.99278 L -33.35534 3.99278" />
    <path d="M -33.35534 -3.99278 A 2 0.12014 360 0 1 -37.35534 -3.99278 L -37.35534 3.99278 A 2 0.12014 180 0 0 -33.35534 3.99278" />
    <path d="M -37.35534 -3.99278 A 2 0.12014 360 0 1 -36.76955 -4.07773" />
    <path d="M -65.05382 -4.07773 A 2 0.12014 360 0 1 -61.63961 -3.99278 L -61.63961 3.99278" />
    <path d="M -61.63961 -3.99278 A 2 0.12014 360 0 1 -65.63961 -3.99278 L -65.63961 3.99278 A 2 0.12014 180 0 0 -61.63961 3.99278" />
    <path d="M -65.63961 -3.99278 A 2 0.12014 360 0 1 -65.05382 -4.07773" />
    <path d="M -50.91169 -4.07773 A 2 0.12014 360 0 1 -47.49747 -3.99278 L -47.49747 3.99278" />
    <path d="M -47.49747 -3.99278 A 2 0.12014 360 0 1 -51.49747 -3.99278 L -51.49747 3.99278 A 2 0.12014 180 0 0 -47.49747 3.99278" />
    <path d="M -51.49747 -3.99278 A 2 0.12014 360 0 1 -50.91169 -4.07773" />
    <path d="M 61.63961 -3.99278 L 61.63961 3.99278" />
    <path d="M 65.63961 -3.99278 L 65.63961 3.99278" />
    <path d="M 47.49747 -3.99278 L 47.49747 3.99278" />
    <path d="M 51.49747 -3.99278 L 51.49747 3.99278" />
    <path d="M 33.35534 -3.99278 L 33.35534 3.99278" />
    <path d="M 37.35534 -3.99278 L 37.35534 3.99278" />
    <path d="M 19.2132 -3.99278 L 19.2132 3.99278" />
    <path d="M 23.2132 -3.99278 L 23.2132 3.99278" />
    <path d="M 9.07107 -3.99278 L 9.07107 3.99278" />
</svg>