<svg version="1.1" xmlns="http://www.w3.org/2000/svg" viewBox="-52.49730017403054 -5.140815606303775 104.99495136597746 10.281657970741326" fill="none" stroke="black" stroke-width="0.6%" vector-effect="non-scaling-stroke">
    <path d="M 48.08343 -4.09616 A 2 0.15246 360 0 1 51.49765 -3.98835 A 2 0.15246 360 1 1 47.49765 -3.98835 A 2 0.15246 360 0 1 48.08343 -4.09616 Z" />
    <path d="M 47.49765 3.98837 A 2 0.15246 180 1 0 51.49765 3.98837" />
    <path d="M 33.9413 -4.09616 A 2 0.15246 360 0 1 37.35551 -3.98835 A 2 0.15246 360 1 1 33.35551 -3.98835 A 2 0.15246 360 0 1 33.9413 -4.09616 Z" />
    <path d="M 33.35551 3.98837 A 2 0.15246 180 1 0 37.35551 3.98837" />
    <path d="M 19.79916 -4.09616 A 2 0.15246 360 0 1 23.21338 -3.98835 A 2 0.15246 360 1 1 19.21338 -3.98835 A 2 0.15246 360 0 1 19.79916 -4.09616 Z" />
    <path d="M 19.21338 3.98837 A 2 0.15246 180 1 0 23.21338 3.98837" />
    <path d="M 5.65703 -4.09615 A 2 0.15246 360 0 1 9.07124 -3.98835 A 2 0.15246 360 1 1 5.07124 -3.98835 A 2 0.15246 360 0 1 5.65703 -4.09615 Z" />
    <path d="M 5.07124 3.98837 A 2 0.15246 180 1 0 9.07124 3.98837" />
    <path d="M -8.48511 -4.09615 A 2 0.15246 360 0 1 -5.07089 -3.98835 L -5.07089 3.98838" />
    <path d="M -5.07089 -3.98835 A 2 0.15246 360 1 1 -9.07089 -3.98835 L -9.07089 3.98838 A 2 0.15246 180 1 0 -5.07089 3.98838" />
    <path d="M -9.07089 -3.98835 A 2 0.15246 360 0 1 -8.48511 -4.09615" />
    <path d="M -22.62724 -4.09615 A 2 0.15246 360 0 1 -19.21303 -3.98834 L -19.21303 3.98838" />
    <path d="M -19.21303 -3.98834 A 2 0.15246 360 1 1 -23.21303 -3.98834 L -23.21303 3.98838 A 2 0.15246 180 1 0 -19.21303 3.98838" />
    <path d="M -23.21303 -3.98834 A 2 0.15246 360 0 1 -22.62724 -4.09615" />
    <path d="M -50.91152 -4.09615 A 2 0.15246 360 0 1 -47.4973 -3.98834 L -47.4973 3.98838" />
    <path d="M -47.4973 -3.98834 A 2 0.15246 360 1 1 -51.4973 -3.98834 L -51.4973 3.98838 A 2 0.15246 180 1 0 -47.4973 3.98838" />
    <path d="M -51.4973 -3.98834 A 2 0.15246 360 0 1 -50.91152 -4.09615" />
    <path d="M -36.76938 -4.09615 A 2 0.15246 360 0 1 -33.35516 -3.98834 L -33.35516 3.98838" />
    <path d="M -33.35516 -3.98834 A 2 0.15246 360 1 1 -37.35516 -3.98834 L -37.35516 3.98838 A 2 0.15246 180 1 0 -33.35516 3.98838" />
    <path d="M -37.35516 -3.98834 A 2 0.15246 360 0 1 -36.76938 -4.09615" />
    <path d="M 47.49765 -3.98835 L 47.49765 3.98837" />
    <path d="M 51.49765 -3.98835 L 51.49765 3.98837" />
    <path d="M 33.35551 -3.98835 L 33.35551 3.98837" />
    <path d="M 37.35551 -3.98835 L 37.35551 3.98837" />
    <path d="M 19.21338 -3.98835 L 19.21338 3.98837" />
    <path d="M 23.21338 -3.98835 L 23.21338 3.98837" />
    <path d="M 5.07124 -3.98835 L 5.07124 3.98837" />
    <path d="M 9.07124 -3.98835 L 9.07124 3.98837" />
</svg>