<svg version="1.1" xmlns="http://www.w3.org/2000/svg" viewBox="-10.969144438524923 -10.969333697040282 21.938288877049843 21.93866739408056" fill="none" stroke="black" stroke-width="0.6%" vector-effect="non-scaling-stroke">
    <path d="M -0.78497 9.18918 L -0.78497 -0.78015 L 0 0 L 9.96914 -0.06143 L 9.18417 -0.84158 L -0.78497 -0.78015" />
    <path d="M 0 9.96933 L 0 0" />
    <path d="M -0.78497 9.18918 L 0 9.96933 L 9.96914 9.9079 L 9.96914 -0.06143" />
    <path d="M -9.96914 0.06143 L -9.96914 -9.9079 L -9.18417 -9.12775 L 0.78497 -9.18918 L 0 -9.96933 L -9.96914 -9.9079" />
    <path d="M -9.18417 0.84158 L -9.18417 -9.12775" />
    <path d="M -9.96914 0.06143 L -9.18417 0.84158 L -8.94868 0.84013" />
    <path d="M 0.78497 -8.95369 L 0.78497 -9.18918" />
    <path d="M -8.94868 1.07562 L -8.94868 -8.89371 L -8.16371 -8.11356 L 1.80544 -8.17499 L 1.02046 -8.95514 L -8.94868 -8.89371" />
    <path d="M -8.16371 1.85577 L -8.16371 -8.11356" />
    <path d="M -8.94868 1.07562 L -8.16371 1.85577 L -7.92822 1.85432" />
    <path d="M 1.80544 -7.93949 L 1.80544 -8.17499" />
    <path d="M -7.92822 2.08982 L -7.92822 -7.87951 L -7.14324 -7.09936 L 2.8259 -7.16079 L 2.04093 -7.94094 L -7.92822 -7.87951" />
    <path d="M -7.14324 2.86997 L -7.14324 -7.09936" />
    <path d="M -7.92822 2.08982 L -7.14324 2.86997 L -6.90775 2.86852" />
    <path d="M 2.8259 -6.9253 L 2.8259 -7.16079" />
    <path d="M -6.90775 3.10401 L -6.90775 -6.86532 L -6.12278 -6.08517 L 3.84636 -6.1466 L 3.06139 -6.92675 L -6.90775 -6.86532" />
    <path d="M -6.12278 3.88416 L -6.12278 -6.08517" />
    <path d="M -6.90775 3.10401 L -6.12278 3.88416 L -5.88729 3.88271" />
    <path d="M 3.84636 -5.9111 L 3.84636 -6.1466" />
    <path d="M -5.88729 4.11821 L -5.88729 -5.85112 L -5.10232 -5.07097 L 4.86683 -5.1324 L 4.08185 -5.91255 L -5.88729 -5.85112" />
    <path d="M -5.10232 4.89836 L -5.10232 -5.07097" />
    <path d="M -5.88729 4.11821 L -5.10232 4.89836 L -4.86683 4.89691" />
    <path d="M 4.86683 -4.89691 L 4.86683 -5.1324" />
    <path d="M -4.86683 5.1324 L -4.86683 -4.83693 L -4.08185 -4.05678 L 5.88729 -4.11821 L 5.10232 -4.89836 L -4.86683 -4.83693" />
    <path d="M -4.08185 5.91255 L -4.08185 -4.05678" />
    <path d="M -4.86683 5.1324 L -4.08185 5.91255 L -3.84636 5.9111" />
    <path d="M 5.88729 -3.88271 L 5.88729 -4.11821" />
    <path d="M -3.84636 6.1466 L -3.84636 -3.82273 L -3.06139 -3.04258 L 6.90775 -3.10401 L 6.12278 -3.88416 L -3.84636 -3.82273" />
    <path d="M -3.06139 6.92675 L -3.06139 -3.04258" />
    <path d="M -3.84636 6.1466 L -3.06139 6.92675 L -2.8259 6.9253" />
    <path d="M 6.90775 -2.86852 L 6.90775 -3.10401" />
    <path d="M -2.8259 7.16079 L -2.8259 -2.80854 L -2.04093 -2.02839 L 7.92822 -2.08982 L 7.14324 -2.86997 L -2.8259 -2.80854" />
    <path d="M -2.04093 7.94094 L -2.04093 -2.02839" />
    <path d="M -2.8259 7.16079 L -2.04093 7.94094 L -1.80544 7.93949" />
    <path d="M 7.92822 -1.85432 L 7.92822 -2.08982" />
    <path d="M -1.80544 8.17499 L -1.80544 -1.79434 L -1.02046 -1.01419 L 8.94868 -1.07562 L 8.16371 -1.85577 L -1.80544 -1.79434" />
    <path d="M -1.02046 8.95514 L -1.02046 -1.01419" />
    <path d="M -1.80544 8.17499 L -1.02046 8.95514 L -0.78497 8.95369" />
    <path d="M 8.94868 -0.84013 L 8.94868 -1.07562" />
</svg>