<svg version="1.1" xmlns="http://www.w3.org/2000/svg" viewBox="-10.91228008973167 -10.913792576330653 21.824560179463337 21.827585152661307" fill="none" stroke="black" stroke-width="0.6%" vector-effect="non-scaling-stroke">
    <path d="M -1.32164 8.61504 L -1.32164 -1.29875 L 0 0 L 9.91228 -0.17317 L 8.59064 -1.47192 L -1.32164 -1.29875" />
    <path d="M 0 9.91379 L 0 0" />
    <path d="M -1.32164 8.61504 L 0 9.91379 L 9.91228 9.74062 L 9.91228 -0.17317" />
    <path d="M -9.91228 0.17317 L -9.91228 -9.74062 L -8.59064 -8.44187 L 1.32164 -8.61504 L 0 -9.91379 L -9.91228 -9.74062" />
    <path d="M -8.59064 1.47192 L -8.59064 -8.44187" />
    <path d="M -9.91228 0.17317 L -8.59064 1.47192 L -8.19415 1.46499" />
    <path d="M 1.32164 -8.21849 L 1.32164 -8.61504" />
    <path d="M -8.19415 1.86154 L -8.19415 -8.05225 L -6.87251 -6.7535 L 3.03977 -6.92667 L 1.71813 -8.22542 L -8.19415 -8.05225" />
    <path d="M -6.87251 3.16029 L -6.87251 -6.7535" />
    <path d="M -8.19415 1.86154 L -6.87251 3.16029 L -6.47602 3.15336" />
    <path d="M 3.03977 -6.53011 L 3.03977 -6.92667" />
    <path d="M -6.47602 3.54992 L -6.47602 -6.36387 L -5.15439 -5.06512 L 4.75789 -5.23829 L 3.43626 -6.53704 L -6.47602 -6.36387" />
    <path d="M -5.15439 4.84867 L -5.15439 -5.06512" />
    <path d="M -6.47602 3.54992 L -5.15439 4.84867 L -4.75789 4.84174" />
    <path d="M 4.75789 -4.84174 L 4.75789 -5.23829" />
    <path d="M -4.75789 5.23829 L -4.75789 -4.6755 L -3.43626 -3.37675 L 6.47602 -3.54992 L 5.15439 -4.84867 L -4.75789 -4.6755" />
    <path d="M -3.43626 6.53704 L -3.43626 -3.37675" />
    <path d="M -4.75789 5.23829 L -3.43626 6.53704 L -3.03977 6.53011" />
    <path d="M 6.47602 -3.15336 L 6.47602 -3.54992" />
    <path d="M -3.03977 6.92667 L -3.03977 -2.98712 L -1.71813 -1.68837 L 8.19415 -1.86154 L 6.87251 -3.16029 L -3.03977 -2.98712" />
    <path d="M -1.71813 8.22542 L -1.71813 -1.68837" />
    <path d="M -3.03977 6.92667 L -1.71813 8.22542 L -1.32164 8.21849" />
    <path d="M 8.19415 -1.46499 L 8.19415 -1.86154" />
</svg>