<svg version="1.1" xmlns="http://www.w3.org/2000/svg" viewBox="-6.000001 -6.000001 156.000002 12.000002" fill="none" stroke="black" stroke-width="0.6%" vector-effect="non-scaling-stroke">
    <path d="M 139 -5 L 149 -5 L 149 5 L 139 5 L 139 -5 Z" />
    <path d="M 123 -5 L 133 -5 L 133 5 L 123 5 L 123 -5 Z" />
    <path d="M 107 -5 L 117 -5 L 117 5 L 107 5 L 107 -5 Z" />
    <path d="M 91 -5 L 101 -5 L 101 5 L 91 5 L 91 -5 Z" />
    <path d="M 75 -5 L 85 -5 L 85 5 L 75 5 L 75 -5 Z" />
    <path d="M 59 -5 L 69 -5 L 69 5 L 59 5 L 59 -5 Z" />
    <path d="M 43 -5 L 53 -5 L 53 5 L 43 5 L 43 -5 Z" />
    <path d="M 27 -5 L 37 -5 L 37 5 L 27 5 L 27 -5 Z" />
    <path d="M -5 -5 L 5 -5 L 5 5 L -5 5 L -5 -5 Z" />
    <path d="M 11 -5 L 21 -5 L 21 5 L 11 5 L 11 -5 Z" />
</svg>