<svg version="1.1" xmlns="http://www.w3.org/2000/svg" viewBox="-71.71067911865477 -33.068983748623246 143.42135823730956 66.13796749724646" fill="none" stroke="black" stroke-width="0.6%" vector-effect="non-scaling-stroke">
    <path d="M 56.56854 -20.04311 L 56.56854 -23.68732 L 56.56854 -29.15362 L 63.63961 -26.23826 L 70.71068 -29.15362 L 63.63961 -32.06898 L 56.56854 -29.15362" />
    <path d="M 63.63961 -17.12775 L 63.63961 -26.23826" />
    <path d="M 56.56854 -20.04311 L 63.63961 -17.12775 L 70.71068 -20.04311 L 70.71068 -29.15362" />
    <path d="M 49.49747 -11.66145 L 49.49747 -20.77195 L 56.56854 -23.68732 L 49.49747 -26.60268 L 42.42641 -23.68732 L 49.49747 -20.77195" />
    <path d="M 56.56854 -14.57681 L 56.56854 -20.04311" />
    <path d="M 49.49747 -11.66145 L 56.56854 -14.57681" />
    <path d="M 42.42641 -14.57681 L 42.42641 -18.22101 L 35.35534 -21.13637 L 28.28427 -18.22101 L 35.35534 -15.30565 L 42.42641 -18.22101 L 42.42641 -23.68732" />
    <path d="M 42.42641 -14.57681 L 49.49747 -11.66145" />
    <path d="M 28.28427 -9.11051 L 28.28427 -12.75471 L 21.2132 -15.67007 L 14.14214 -12.75471 L 21.2132 -9.83935 L 28.28427 -12.75471 L 28.28427 -18.22101" />
    <path d="M 35.35534 -6.19514 L 35.35534 -15.30565" />
    <path d="M 28.28427 -9.11051 L 35.35534 -6.19514 L 42.42641 -9.11051 L 42.42641 -14.57681" />
    <path d="M 14.14214 -3.6442 L 14.14214 -7.28841 L 7.07107 -10.20377 L 0 -7.28841 L 7.07107 -4.37304 L 14.14214 -7.28841 L 14.14214 -12.75471" />
    <path d="M 21.2132 -0.72884 L 21.2132 -9.83935" />
    <path d="M 14.14214 -3.6442 L 21.2132 -0.72884 L 28.28427 -3.6442 L 28.28427 -9.11051" />
    <path d="M 0 1.8221 L 0 -1.8221 L -7.07107 -4.73746 L -14.14214 -1.8221 L -7.07107 1.09326 L 0 -1.8221 L 0 -7.28841" />
    <path d="M 7.07107 4.73746 L 7.07107 -4.37304" />
    <path d="M 0 1.8221 L 7.07107 4.73746 L 14.14214 1.8221 L 14.14214 -3.6442" />
    <path d="M -14.14214 7.28841 L -14.14214 3.6442 L -21.2132 0.72884 L -28.28427 3.6442 L -21.2132 6.55956 L -14.14214 3.6442 L -14.14214 -1.8221" />
    <path d="M -7.07107 10.20377 L -7.07107 1.09326" />
    <path d="M -14.14214 7.28841 L -7.07107 10.20377 L 0 7.28841 L 0 1.8221" />
    <path d="M -28.28427 12.75471 L -28.28427 9.11051 L -35.35534 6.19514 L -42.42641 9.11051 L -35.35534 12.02587 L -28.28427 9.11051 L -28.28427 3.6442" />
    <path d="M -21.2132 15.67007 L -21.2132 6.55956" />
    <path d="M -28.28427 12.75471 L -21.2132 15.67007 L -14.14214 12.75471 L -14.14214 7.28841" />
    <path d="M -42.42641 18.22101 L -42.42641 14.57681 L -49.49747 11.66145 L -56.56854 14.57681 L -49.49747 17.49217 L -42.42641 14.57681 L -42.42641 9.11051" />
    <path d="M -35.35534 21.13637 L -35.35534 12.02587" />
    <path d="M -42.42641 18.22101 L -35.35534 21.13637 L -28.28427 18.22101 L -28.28427 12.75471" />
    <path d="M -56.56854 23.68732 L -56.56854 20.04311 L -63.63961 17.12775 L -70.71068 20.04311 L -63.63961 22.95848 L -56.56854 20.04311 L -56.56854 14.57681" />
    <path d="M -49.49747 26.60268 L -49.49747 17.49217" />
    <path d="M -56.56854 23.68732 L -49.49747 26.60268 L -42.42641 23.68732 L -42.42641 18.22101" />
    <path d="M -70.71068 29.15362 L -70.71068 20.04311" />
    <path d="M -63.63961 32.06898 L -63.63961 22.95848" />
    <path d="M -70.71068 29.15362 L -63.63961 32.06898 L -56.56854 29.15362 L -56.56854 23.68732" />
</svg>