<svg version="1.1" xmlns="http://www.w3.org/2000/svg" viewBox="-32.29405261149903 -6.558864786346702 64.58810522299808 13.117729572693404" fill="none" stroke="black" stroke-width="0.6%" vector-effect="non-scaling-stroke">
    <path d="M -28.70382 -5.17559 A 2 0.30699 360 0 1 -25.24378 -4.96578 A 2 0.30699 360 1 1 -29.24378 -4.96578 A 2 0.30699 360 0 1 -28.70382 -5.17559 Z" />
    <path d="M -27.30319 -2.68263 A 2 0.30699 360 0 1 -29.23464 -2.96018" />
    <path d="M -27.29405 5.2226 A 2 0.30699 180 0 0 -25.24378 4.91571" />
    <path d="M -31.29405 5.25187 A 2 0.30699 180 1 0 -27.29405 5.25187" />
    <path d="M -27.30319 -2.68263 A 2 0.30699 360 0 1 -27.29405 -2.65332 A 2 0.30699 360 0 1 -31.29405 -2.65332 A 2 0.30699 360 0 1 -29.23464 -2.96018" />
    <path d="M -14.56936 -5.24711 A 2 0.30699 360 0 1 -11.10932 -5.03731 A 2 0.30699 360 1 1 -15.10932 -5.03731 A 2 0.30699 360 0 1 -14.56936 -5.24711 Z" />
    <path d="M -13.16873 -2.75415 A 2 0.30699 360 0 1 -15.10018 -3.0317" />
    <path d="M -13.15959 5.15108 A 2 0.30699 180 0 0 -11.10932 4.84419" />
    <path d="M -17.15959 5.18035 A 2 0.30699 180 1 0 -13.15959 5.18035" />
    <path d="M -13.16873 -2.75415 A 2 0.30699 360 0 1 -13.15959 -2.72484 A 2 0.30699 360 0 1 -17.15959 -2.72484 A 2 0.30699 360 0 1 -15.10018 -3.0317" />
    <path d="M -0.4349 -5.31863 A 2 0.30699 360 0 1 3.02514 -5.10883 A 2 0.30699 360 1 1 -0.97486 -5.10883 L -0.97486 -3.10326" />
    <path d="M -0.97486 -5.10883 A 2 0.30699 360 0 1 -0.4349 -5.31863" />
    <path d="M 0.96573 -2.82568 A 2 0.30699 360 0 1 -0.96573 -3.10322" />
    <path d="M 0.97486 5.07956 A 2 0.30699 180 0 0 3.02514 4.77267" />
    <path d="M -3.02514 5.10883 A 2 0.30699 180 1 0 0.97486 5.10883" />
    <path d="M 0.96573 -2.82568 A 2 0.30699 360 0 1 0.97486 -2.79637 L 0.97486 5.10883" />
    <path d="M 0.97486 -2.79637 A 2 0.30699 360 0 1 -3.02514 -2.79637 L -3.02514 5.10883" />
    <path d="M -3.02514 -2.79637 A 2 0.30699 360 0 1 -0.96573 -3.10322" />
    <path d="M 13.69955 -5.39016 A 2 0.30699 360 0 1 17.15959 -5.18035 L 17.15959 4.70114" />
    <path d="M 17.15959 -5.18035 A 2 0.30699 360 1 1 13.15959 -5.18035 L 13.15959 -3.17478" />
    <path d="M 13.15959 -5.18035 A 2 0.30699 360 0 1 13.69955 -5.39016" />
    <path d="M 15.10018 -2.8972 A 2 0.30699 360 0 1 13.16873 -3.17474" />
    <path d="M 15.10932 5.00804 A 2 0.30699 180 0 0 17.15959 4.70114" />
    <path d="M 11.10932 5.03731 A 2 0.30699 180 1 0 15.10932 5.03731" />
    <path d="M 15.10018 -2.8972 A 2 0.30699 360 0 1 15.10932 -2.86789 L 15.10932 5.03731" />
    <path d="M 15.10932 -2.86789 A 2 0.30699 360 0 1 11.10932 -2.86789 L 11.10932 5.03731" />
    <path d="M 11.10932 -2.86789 A 2 0.30699 360 0 1 13.16873 -3.17474" />
    <path d="M 27.83401 -5.46168 A 2 0.30699 360 0 1 31.29405 -5.25187 L 31.29405 4.62962" />
    <path d="M 31.29405 -5.25187 A 2 0.30699 360 1 1 27.29405 -5.25187 L 27.29405 -3.2463" />
    <path d="M 27.29405 -5.25187 A 2 0.30699 360 0 1 27.83401 -5.46168" />
    <path d="M 29.23464 -2.96872 A 2 0.30699 360 0 1 27.30319 -3.24627" />
    <path d="M 29.24378 4.93651 A 2 0.30699 180 0 0 31.29405 4.62962" />
    <path d="M 25.24378 4.96578 A 2 0.30699 180 1 0 29.24378 4.96578" />
    <path d="M 29.23464 -2.96872 A 2 0.30699 360 0 1 29.24378 -2.93941 L 29.24378 4.96578" />
    <path d="M 29.24378 -2.93941 A 2 0.30699 360 0 1 25.24378 -2.93941 L 25.24378 4.96578" />
    <path d="M 25.24378 -2.93941 A 2 0.30699 360 0 1 27.30319 -3.24627" />
    <path d="M -29.24378 -4.96578 L -29.24378 -2.96021" />
    <path d="M -25.24378 -4.96578 L -25.24378 4.91571" />
    <path d="M -31.29405 -2.65332 L -31.29405 5.25187" />
    <path d="M -27.29405 -2.65332 L -27.29405 5.25187" />
    <path d="M -15.10932 -5.03731 L -15.10932 -3.03174" />
    <path d="M -11.10932 -5.03731 L -11.10932 4.84419" />
    <path d="M -17.15959 -2.72484 L -17.15959 5.18035" />
    <path d="M -13.15959 -2.72484 L -13.15959 5.18035" />
    <path d="M 3.02514 -5.10883 L 3.02514 4.77267" />
</svg>