<svg version="1.1" xmlns="http://www.w3.org/2000/svg" viewBox="-18.432873849764196 -10.632591722786476 36.8657476995284 21.26518344557295" fill="none" stroke="black" stroke-width="0.6%" vector-effect="non-scaling-stroke">
    <path d="M 5.25753 8.30527 L 5.25753 -1.60038 L 7.74794 -0.27305 L 17.43287 -0.61436 L 14.94246 -1.94169 L 5.25753 -1.60038" />
    <path d="M 7.74794 9.63259 L 7.74794 -0.27305" />
    <path d="M 5.25753 8.30527 L 7.74794 9.63259 L 17.43287 9.29128 L 17.43287 -0.61436" />
    <path d="M -0.41507 6.38254 L -0.41507 -3.5231 L 2.07534 -2.19578 L 11.76027 -2.53709 L 9.26986 -3.86441 L -0.41507 -3.5231" />
    <path d="M 2.07534 7.70986 L 2.07534 -2.19578" />
    <path d="M -0.41507 6.38254 L 2.07534 7.70986 L 5.25753 7.59772" />
    <path d="M 11.76027 -1.82954 L 11.76027 -2.53709" />
    <path d="M -6.08767 4.45981 L -6.08767 -5.44583 L -3.59726 -4.1185 L 6.08767 -4.45981 L 3.59726 -5.78714 L -6.08767 -5.44583" />
    <path d="M -3.59726 5.78714 L -3.59726 -4.1185" />
    <path d="M -6.08767 4.45981 L -3.59726 5.78714 L -0.41507 5.67499" />
    <path d="M 6.08767 -3.75227 L 6.08767 -4.45981" />
    <path d="M -17.43287 0.61436 L -17.43287 -9.29128 L -14.94246 -7.96395 L -5.25753 -8.30527 L -7.74794 -9.63259 L -17.43287 -9.29128" />
    <path d="M -14.94246 1.94169 L -14.94246 -7.96395" />
    <path d="M -17.43287 0.61436 L -14.94246 1.94169 L -11.76027 1.82954" />
    <path d="M -5.25753 -7.59772 L -5.25753 -8.30527" />
    <path d="M -11.76027 2.53709 L -11.76027 -7.36855 L -9.26986 -6.04123 L 0.41507 -6.38254 L -2.07534 -7.70986 L -11.76027 -7.36855" />
    <path d="M -9.26986 3.86441 L -9.26986 -6.04123" />
    <path d="M -11.76027 2.53709 L -9.26986 3.86441 L -6.08767 3.75227" />
    <path d="M 0.41507 -5.67499 L 0.41507 -6.38254" />
</svg>