<svg version="1.1" xmlns="http://www.w3.org/2000/svg" viewBox="-3.7442686087665114 -6.709152308111837 7.488537217533022 13.418304616223672" fill="none" stroke="black" stroke-width="0.6%" vector-effect="non-scaling-stroke">
    <path d="M -0.99217 -4.92472 A 2 1.55696 360 0 1 2.74427 -4.1522 A 2 1.55696 360 0 1 -1.25573 -4.1522 A 2 1.55696 360 0 1 -0.99217 -4.92472 Z" />
    <path d="M 1.14855 -1.37204 A 2 1.55696 360 0 1 -1.14855 -2.39399" />
    <path d="M 1.25573 3.62971 A 2 1.55696 180 0 0 2.74427 2.12452" />
    <path d="M -2.74427 4.1522 A 2 1.55696 180 0 0 1.25573 4.1522" />
    <path d="M 1.14855 -1.37204 A 2 1.55696 360 0 1 1.25573 -0.86918 L 1.25573 4.1522" />
    <path d="M 1.25573 -0.86918 A 2 1.55696 360 1 1 -2.74427 -0.86918 L -2.74427 4.1522" />
    <path d="M -2.74427 -0.86918 A 2 1.55696 360 0 1 -1.14855 -2.39399" />
    <path d="M -1.25573 -4.1522 L -1.25573 -2.37436" />
    <path d="M 2.74427 -4.1522 L 2.74427 2.12452" />
</svg>