<svg version="1.1" xmlns="http://www.w3.org/2000/svg" viewBox="-67.6756348619559 -6.287361880813728 135.35126972391177 12.574723761627453" fill="none" stroke="black" stroke-width="0.6%" vector-effect="non-scaling-stroke">
    <path d="M -64.02414 -5.09486 A 2 0.14768 0 0 1 -60.58789 -4.99209 A 2 0.14768 0 0 1 -64.58789 -4.99209 A 2 0.14768 0 0 1 -64.02414 -5.09486 Z" />
    <path d="M -62.68177 -2.85004 A 2 0.14768 0 0 1 -64.58175 -2.98599" />
    <path d="M -62.67563 5.12814 A 2 0.14768 180 0 0 -60.58789 4.98061" />
    <path d="M -66.67563 5.13969 A 2 0.14768 180 0 0 -62.67563 5.13969" />
    <path d="M -62.68177 -2.85004 A 2 0.14768 0 0 1 -62.67563 -2.83848 A 2 0.14768 0 0 1 -66.67563 -2.83848 A 2 0.14768 0 0 1 -64.58175 -2.98599" />
    <path d="M -49.88375 -5.11126 A 2 0.14768 0 0 1 -46.4475 -5.00849 A 2 0.14768 0 0 1 -50.4475 -5.00849 A 2 0.14768 0 0 1 -49.88375 -5.11126 Z" />
    <path d="M -48.54138 -2.86644 A 2 0.14768 0 0 1 -50.44136 -3.00239" />
    <path d="M -48.53524 5.11175 A 2 0.14768 180 0 0 -46.4475 4.96421" />
    <path d="M -52.53524 5.12329 A 2 0.14768 180 0 0 -48.53524 5.12329" />
    <path d="M -48.54138 -2.86644 A 2 0.14768 0 0 1 -48.53524 -2.85488 A 2 0.14768 0 0 1 -52.53524 -2.85488 A 2 0.14768 0 0 1 -50.44136 -3.00239" />
    <path d="M -35.74336 -5.12766 A 2 0.14768 0 0 1 -32.30711 -5.02489 A 2 0.14768 0 0 1 -36.30711 -5.02489 A 2 0.14768 0 0 1 -35.74336 -5.12766 Z" />
    <path d="M -34.40099 -2.88284 A 2 0.14768 0 0 1 -36.30097 -3.01879" />
    <path d="M -34.39485 5.09535 A 2 0.14768 180 0 0 -32.30711 4.94781" />
    <path d="M -38.39485 5.10689 A 2 0.14768 180 0 0 -34.39485 5.10689" />
    <path d="M -34.40099 -2.88284 A 2 0.14768 0 0 1 -34.39485 -2.87128 A 2 0.14768 0 0 1 -38.39485 -2.87128 A 2 0.14768 0 0 1 -36.30097 -3.01879" />
    <path d="M -21.60296 -5.14406 A 2 0.14768 0 0 1 -18.16672 -5.04129 A 2 0.14768 0 0 1 -22.16672 -5.04129 A 2 0.14768 0 0 1 -21.60296 -5.14406 Z" />
    <path d="M -20.2606 -2.89924 A 2 0.14768 0 0 1 -22.16058 -3.03519" />
    <path d="M -20.25446 5.07895 A 2 0.14768 180 0 0 -18.16672 4.93141" />
    <path d="M -24.25446 5.09049 A 2 0.14768 180 0 0 -20.25446 5.09049" />
    <path d="M -20.2606 -2.89924 A 2 0.14768 0 0 1 -20.25446 -2.88767 A 2 0.14768 0 0 1 -24.25446 -2.88767 A 2 0.14768 0 0 1 -22.16058 -3.03519" />
    <path d="M -7.46257 -5.16046 A 2 0.14768 0 0 1 -4.02632 -5.05769 L -4.02632 4.91501" />
    <path d="M -4.02632 -5.05769 A 2 0.14768 0 0 1 -8.02632 -5.05769 L -8.02632 -3.05161" />
    <path d="M -8.02632 -5.05769 A 2 0.14768 0 0 1 -7.46257 -5.16046" />
    <path d="M -6.12021 -2.91564 A 2 0.14768 0 0 1 -8.02019 -3.05159" />
    <path d="M -6.11407 5.06255 A 2 0.14768 180 0 0 -4.02632 4.91501" />
    <path d="M -10.11407 5.07409 A 2 0.14768 180 0 0 -6.11407 5.07409" />
    <path d="M -6.12021 -2.91564 A 2 0.14768 0 0 1 -6.11407 -2.90407 L -6.11407 5.07409" />
    <path d="M -6.11407 -2.90407 A 2 0.14768 0 0 1 -10.11407 -2.90407 L -10.11407 5.07409" />
    <path d="M -10.11407 -2.90407 A 2 0.14768 0 0 1 -8.02019 -3.05159" />
    <path d="M 6.67782 -5.17686 A 2 0.14768 0 0 1 10.11407 -5.07409 L 10.11407 4.89861" />
    <path d="M 10.11407 -5.07409 A 2 0.14768 0 0 1 6.11407 -5.07409 L 6.11407 -3.06801" />
    <path d="M 6.11407 -5.07409 A 2 0.14768 0 0 1 6.67782 -5.17686" />
    <path d="M 8.02019 -2.93203 A 2 0.14768 0 0 1 6.12021 -3.06799" />
    <path d="M 8.02632 5.04615 A 2 0.14768 180 0 0 10.11407 4.89861" />
    <path d="M 4.02632 5.05769 A 2 0.14768 180 0 0 8.02632 5.05769" />
    <path d="M 8.02019 -2.93203 A 2 0.14768 0 0 1 8.02632 -2.92047 L 8.02632 5.05769" />
    <path d="M 8.02632 -2.92047 A 2 0.14768 0 0 1 4.02632 -2.92047 L 4.02632 5.05769" />
    <path d="M 4.02632 -2.92047 A 2 0.14768 0 0 1 6.12021 -3.06799" />
    <path d="M 20.81821 -5.19326 A 2 0.14768 0 0 1 24.25446 -5.09049 L 24.25446 4.88222" />
    <path d="M 24.25446 -5.09049 A 2 0.14768 0 0 1 20.25446 -5.09049 L 20.25446 -3.08441" />
    <path d="M 20.25446 -5.09049 A 2 0.14768 0 0 1 20.81821 -5.19326" />
    <path d="M 22.16058 -2.94843 A 2 0.14768 0 0 1 20.2606 -3.08439" />
    <path d="M 22.16672 5.02975 A 2 0.14768 180 0 0 24.25446 4.88222" />
    <path d="M 18.16672 5.04129 A 2 0.14768 180 0 0 22.16672 5.04129" />
    <path d="M 22.16058 -2.94843 A 2 0.14768 0 0 1 22.16672 -2.93687 L 22.16672 5.04129" />
    <path d="M 22.16672 -2.93687 A 2 0.14768 0 0 1 18.16672 -2.93687 L 18.16672 5.04129" />
    <path d="M 18.16672 -2.93687 A 2 0.14768 0 0 1 20.2606 -3.08439" />
    <path d="M 34.9586 -5.20966 A 2 0.14768 0 0 1 38.39485 -5.10689 L 38.39485 4.86582" />
    <path d="M 38.39485 -5.10689 A 2 0.14768 0 0 1 34.39485 -5.10689 L 34.39485 -3.10081" />
    <path d="M 34.39485 -5.10689 A 2 0.14768 0 0 1 34.9586 -5.20966" />
    <path d="M 36.30097 -2.96483 A 2 0.14768 0 0 1 34.40099 -3.10078" />
    <path d="M 36.30711 5.01335 A 2 0.14768 180 0 0 38.39485 4.86582" />
    <path d="M 32.30711 5.02489 A 2 0.14768 180 0 0 36.30711 5.02489" />
    <path d="M 36.30097 -2.96483 A 2 0.14768 0 0 1 36.30711 -2.95327 L 36.30711 5.02489" />
    <path d="M 36.30711 -2.95327 A 2 0.14768 0 0 1 32.30711 -2.95327 L 32.30711 5.02489" />
    <path d="M 32.30711 -2.95327 A 2 0.14768 0 0 1 34.40099 -3.10078" />
    <path d="M 49.09899 -5.22606 A 2 0.14768 0 0 1 52.53524 -5.12329 L 52.53524 4.84942" />
    <path d="M 52.53524 -5.12329 A 2 0.14768 0 0 1 48.53524 -5.12329 L 48.53524 -3.1172" />
    <path d="M 48.53524 -5.12329 A 2 0.14768 0 0 1 49.09899 -5.22606" />
    <path d="M 50.44136 -2.98123 A 2 0.14768 0 0 1 48.54138 -3.11718" />
    <path d="M 50.4475 4.99695 A 2 0.14768 180 0 0 52.53524 4.84942" />
    <path d="M 46.4475 5.00849 A 2 0.14768 180 0 0 50.4475 5.00849" />
    <path d="M 50.44136 -2.98123 A 2 0.14768 0 0 1 50.4475 -2.96967 L 50.4475 5.00849" />
    <path d="M 50.4475 -2.96967 A 2 0.14768 0 0 1 46.4475 -2.96967 L 46.4475 5.00849" />
    <path d="M 46.4475 -2.96967 A 2 0.14768 0 0 1 48.54138 -3.11718" />
    <path d="M 63.23938 -5.24245 A 2 0.14768 0 0 1 66.67563 -5.13969 L 66.67563 4.83302" />
    <path d="M 66.67563 -5.13969 A 2 0.14768 0 0 1 62.67563 -5.13969 L 62.67563 -3.1336" />
    <path d="M 62.67563 -5.13969 A 2 0.14768 0 0 1 63.23938 -5.24245" />
    <path d="M 64.58175 -2.99763 A 2 0.14768 0 0 1 62.68177 -3.13358" />
    <path d="M 64.58789 4.98055 A 2 0.14768 180 0 0 66.67563 4.83302" />
    <path d="M 60.58789 4.99209 A 2 0.14768 180 0 0 64.58789 4.99209" />
    <path d="M 64.58175 -2.99763 A 2 0.14768 0 0 1 64.58789 -2.98607 L 64.58789 4.99209" />
    <path d="M 64.58789 -2.98607 A 2 0.14768 0 0 1 60.58789 -2.98607 L 60.58789 4.99209" />
    <path d="M 60.58789 -2.98607 A 2 0.14768 0 0 1 62.68177 -3.13358" />
    <path d="M -64.58789 -4.99209 L -64.58789 -2.98601" />
    <path d="M -60.58789 -4.99209 L -60.58789 4.98061" />
    <path d="M -66.67563 -2.83848 L -66.67563 5.13969" />
    <path d="M -62.67563 -2.83848 L -62.67563 5.13969" />
    <path d="M -50.4475 -5.00849 L -50.4475 -3.00241" />
    <path d="M -46.4475 -5.00849 L -46.4475 4.96421" />
    <path d="M -52.53524 -2.85488 L -52.53524 5.12329" />
    <path d="M -48.53524 -2.85488 L -48.53524 5.12329" />
    <path d="M -36.30711 -5.02489 L -36.30711 -3.01881" />
    <path d="M -32.30711 -5.02489 L -32.30711 4.94781" />
    <path d="M -38.39485 -2.87128 L -38.39485 5.10689" />
    <path d="M -34.39485 -2.87128 L -34.39485 5.10689" />
    <path d="M -22.16672 -5.04129 L -22.16672 -3.03521" />
    <path d="M -18.16672 -5.04129 L -18.16672 4.93141" />
    <path d="M -24.25446 -2.88767 L -24.25446 5.09049" />
    <path d="M -20.25446 -2.88767 L -20.25446 5.09049" />
</svg>