<svg version="1.1" xmlns="http://www.w3.org/2000/svg" viewBox="-36.47670417947907 -6.555925226615172 72.95340835895814 13.111850453230343" fill="none" stroke="black" stroke-width="0.6%" vector-effect="non-scaling-stroke">
    <path d="M 32.34365 -2.77576 A 2 0.20493 360 0 1 35.4767 -2.6069 A 2 0.20493 360 1 1 31.4767 -2.6069 A 2 0.20493 360 0 1 32.34365 -2.77576 Z" />
    <path d="M 31.4767 5.351 A 2 0.20493 180 1 0 35.4767 5.351" />
    <path d="M 18.95296 -3.32458 A 2 0.20493 360 0 1 22.08602 -3.15572 A 2 0.20493 360 1 1 18.08602 -3.15572 A 2 0.20493 360 0 1 18.95296 -3.32458 Z" />
    <path d="M 18.08602 4.80218 A 2 0.20493 180 1 0 22.08602 4.80218" />
    <path d="M 5.56228 -3.8734 A 2 0.20493 360 0 1 8.69534 -3.70454 A 2 0.20493 360 1 1 4.69534 -3.70454 A 2 0.20493 360 0 1 5.56228 -3.8734 Z" />
    <path d="M 4.69534 4.25336 A 2 0.20493 180 1 0 8.69534 4.25336" />
    <path d="M -7.8284 -4.42223 A 2 0.20493 360 0 1 -4.69534 -4.25336 L -4.69534 3.70454" />
    <path d="M -4.69534 -4.25336 A 2 0.20493 360 1 1 -8.69534 -4.25336 L -8.69534 3.70454 A 2 0.20493 180 1 0 -4.69534 3.70454" />
    <path d="M -8.69534 -4.25336 A 2 0.20493 360 0 1 -7.8284 -4.42223" />
    <path d="M -34.60976 -5.51987 A 2 0.20493 360 0 1 -31.4767 -5.351 L -31.4767 2.6069" />
    <path d="M -31.4767 -5.351 A 2 0.20493 360 1 1 -35.4767 -5.351 L -35.4767 2.6069 A 2 0.20493 180 1 0 -31.4767 2.6069" />
    <path d="M -35.4767 -5.351 A 2 0.20493 360 0 1 -34.60976 -5.51987" />
    <path d="M -21.21908 -4.97105 A 2 0.20493 360 0 1 -18.08602 -4.80218 L -18.08602 3.15572" />
    <path d="M -18.08602 -4.80218 A 2 0.20493 360 1 1 -22.08602 -4.80218 L -22.08602 3.15572 A 2 0.20493 180 1 0 -18.08602 3.15572" />
    <path d="M -22.08602 -4.80218 A 2 0.20493 360 0 1 -21.21908 -4.97105" />
    <path d="M 31.4767 -2.6069 L 31.4767 5.351" />
    <path d="M 35.4767 -2.6069 L 35.4767 5.351" />
    <path d="M 18.08602 -3.15572 L 18.08602 4.80218" />
    <path d="M 22.08602 -3.15572 L 22.08602 4.80218" />
    <path d="M 4.69534 -3.70454 L 4.69534 4.25336" />
    <path d="M 8.69534 -3.70454 L 8.69534 4.25336" />
</svg>