<svg version="1.1" xmlns="http://www.w3.org/2000/svg" viewBox="-45.42623236210892 -5.160565390504703 90.8528157422262 10.321161689810943" fill="none" stroke="black" stroke-width="0.6%" vector-effect="non-scaling-stroke">
    <path d="M 41.01237 -4.10898 A 2 0.17611 360 0 1 44.42658 -3.98445 A 2 0.17611 360 0 1 40.42658 -3.98445 A 2 0.17611 360 0 1 41.01237 -4.10898 Z" />
    <path d="M 40.42658 3.98447 A 2 0.17611 180 1 0 44.42658 3.98447" />
    <path d="M 26.87023 -4.10898 A 2 0.17611 360 0 1 30.28445 -3.98445 A 2 0.17611 360 0 1 26.28445 -3.98445 A 2 0.17611 360 0 1 26.87023 -4.10898 Z" />
    <path d="M 26.28445 3.98447 A 2 0.17611 180 1 0 30.28445 3.98447" />
    <path d="M 12.72809 -4.10898 A 2 0.17611 360 0 1 16.14231 -3.98445 A 2 0.17611 360 0 1 12.14231 -3.98445 A 2 0.17611 360 0 1 12.72809 -4.10898 Z" />
    <path d="M 12.14231 3.98448 A 2 0.17611 180 1 0 16.14231 3.98448" />
    <path d="M -1.41404 -4.10898 A 2 0.17611 360 0 1 2.00018 -3.98445 A 2 0.17611 360 0 1 -1.99982 -3.98445 L -1.99982 3.98448 A 2 0.17611 180 1 0 2.00018 3.98448" />
    <path d="M -1.99982 -3.98445 A 2 0.17611 360 0 1 -1.41404 -4.10898" />
    <path d="M -15.55618 -4.10897 A 2 0.17611 360 0 1 -12.14196 -3.98444 L -12.14196 3.98448" />
    <path d="M -12.14196 -3.98444 A 2 0.17611 360 0 1 -16.14196 -3.98444 L -16.14196 3.98448 A 2 0.17611 180 1 0 -12.14196 3.98448" />
    <path d="M -16.14196 -3.98444 A 2 0.17611 360 0 1 -15.55618 -4.10897" />
    <path d="M -43.84045 -4.10897 A 2 0.17611 360 0 1 -40.42623 -3.98444 L -40.42623 3.98449" />
    <path d="M -40.42623 -3.98444 A 2 0.17611 360 0 1 -44.42623 -3.98444 L -44.42623 3.98449 A 2 0.17611 180 1 0 -40.42623 3.98449" />
    <path d="M -44.42623 -3.98444 A 2 0.17611 360 0 1 -43.84045 -4.10897" />
    <path d="M -29.69831 -4.10897 A 2 0.17611 360 0 1 -26.2841 -3.98444 L -26.2841 3.98448" />
    <path d="M -26.2841 -3.98444 A 2 0.17611 360 0 1 -30.2841 -3.98444 L -30.2841 3.98448 A 2 0.17611 180 1 0 -26.2841 3.98448" />
    <path d="M -30.2841 -3.98444 A 2 0.17611 360 0 1 -29.69831 -4.10897" />
    <path d="M 40.42658 -3.98445 L 40.42658 3.98447" />
    <path d="M 44.42658 -3.98445 L 44.42658 3.98447" />
    <path d="M 26.28445 -3.98445 L 26.28445 3.98447" />
    <path d="M 30.28445 -3.98445 L 30.28445 3.98447" />
    <path d="M 12.14231 -3.98445 L 12.14231 3.98448" />
    <path d="M 16.14231 -3.98445 L 16.14231 3.98448" />
    <path d="M 2.00018 -3.98445 L 2.00018 3.98448" />
</svg>