<svg version="1.1" xmlns="http://www.w3.org/2000/svg" viewBox="-24.21320443559643 -5.274005181681711 48.426408871192855 10.548010363363423" fill="none" stroke="black" stroke-width="0.6%" vector-effect="non-scaling-stroke">
    <path d="M 19.79899 -4.17786 A 2 0.32824 360 0 1 23.2132 -3.94576 A 2 0.32824 360 0 1 19.2132 -3.94576 A 2 0.32824 360 0 1 19.79899 -4.17786 Z" />
    <path d="M 19.2132 3.94576 A 2 0.32824 180 0 0 23.2132 3.94576" />
    <path d="M 5.65685 -4.17786 A 2 0.32824 360 0 1 9.07107 -3.94576 A 2 0.32824 360 0 1 5.07107 -3.94576 A 2 0.32824 360 0 1 5.65685 -4.17786 Z" />
    <path d="M 5.07107 3.94576 A 2 0.32824 180 0 0 9.07107 3.94576" />
    <path d="M -22.62742 -4.17786 A 2 0.32824 360 0 1 -19.2132 -3.94576 L -19.2132 3.94576" />
    <path d="M -19.2132 -3.94576 A 2 0.32824 360 0 1 -23.2132 -3.94576 L -23.2132 3.94576 A 2 0.32824 180 0 0 -19.2132 3.94576" />
    <path d="M -23.2132 -3.94576 A 2 0.32824 360 0 1 -22.62742 -4.17786" />
    <path d="M -8.48528 -4.17786 A 2 0.32824 360 0 1 -5.07107 -3.94576 L -5.07107 3.94576" />
    <path d="M -5.07107 -3.94576 A 2 0.32824 360 0 1 -9.07107 -3.94576 L -9.07107 3.94576 A 2 0.32824 180 0 0 -5.07107 3.94576" />
    <path d="M -9.07107 -3.94576 A 2 0.32824 360 0 1 -8.48528 -4.17786" />
    <path d="M 19.2132 -3.94576 L 19.2132 3.94576" />
    <path d="M 23.2132 -3.94576 L 23.2132 3.94576" />
    <path d="M 5.07107 -3.94576 L 5.07107 3.94576" />
    <path d="M 9.07107 -3.94576 L 9.07107 3.94576" />
</svg>