<svg version="1.1" xmlns="http://www.w3.org/2000/svg" viewBox="-34.819630644184244 -5.202986057914671 69.63961230658519 10.406012376328698" fill="none" stroke="black" stroke-width="0.6%" vector-effect="non-scaling-stroke">
    <path d="M 30.40576 -4.1358 A 2 0.22939 0 0 1 33.81998 -3.97359 A 2 0.22939 0 0 1 29.81998 -3.97359 A 2 0.22939 0 0 1 30.40576 -4.1358 Z" />
    <path d="M 29.81998 3.97361 A 2 0.22939 180 0 0 33.81998 3.97361" />
    <path d="M 23.3347 -4.13579 A 2 0.22939 0 0 1 26.74891 -3.97359 A 2 0.22939 0 0 1 22.74891 -3.97359 A 2 0.22939 0 0 1 23.3347 -4.13579 Z" />
    <path d="M 22.74891 3.97362 A 2 0.22939 180 0 0 26.74891 3.97362" />
    <path d="M 16.26363 -4.13579 A 2 0.22939 0 0 1 19.67785 -3.97359 A 2 0.22939 0 0 1 15.67785 -3.97359 A 2 0.22939 0 0 1 16.26363 -4.13579 Z" />
    <path d="M 15.67785 3.97362 A 2 0.22939 180 0 0 19.67785 3.97362" />
    <path d="M 9.19256 -4.13579 A 2 0.22939 0 0 1 12.60678 -3.97359 A 2 0.22939 0 0 1 8.60678 -3.97359 A 2 0.22939 0 0 1 9.19256 -4.13579 Z" />
    <path d="M 8.60678 3.97362 A 2 0.22939 180 0 0 12.60678 3.97362" />
    <path d="M 2.12149 -4.13579 A 2 0.22939 0 0 1 5.53571 -3.97358 A 2 0.22939 0 0 1 1.53571 -3.97358 L 1.53571 3.97362 A 2 0.22939 180 0 0 5.53571 3.97362" />
    <path d="M 1.53571 -3.97358 A 2 0.22939 0 0 1 2.12149 -4.13579" />
    <path d="M -4.94958 -4.13579 A 2 0.22939 0 0 1 -1.53536 -3.97358 L -1.53536 3.97362" />
    <path d="M -1.53536 -3.97358 A 2 0.22939 0 0 1 -5.53536 -3.97358 L -5.53536 3.97362 A 2 0.22939 180 0 0 -1.53536 3.97362" />
    <path d="M -5.53536 -3.97358 A 2 0.22939 0 0 1 -4.94958 -4.13579" />
    <path d="M -12.02064 -4.13578 A 2 0.22939 0 0 1 -8.60643 -3.97358 L -8.60643 3.97363" />
    <path d="M -8.60643 -3.97358 A 2 0.22939 0 0 1 -12.60643 -3.97358 L -12.60643 3.97363 A 2 0.22939 180 0 0 -8.60643 3.97363" />
    <path d="M -12.60643 -3.97358 A 2 0.22939 0 0 1 -12.02064 -4.13578" />
    <path d="M -19.09171 -4.13578 A 2 0.22939 0 0 1 -15.67749 -3.97358 L -15.67749 3.97363" />
    <path d="M -15.67749 -3.97358 A 2 0.22939 0 0 1 -19.67749 -3.97358 L -19.67749 3.97363 A 2 0.22939 180 0 0 -15.67749 3.97363" />
    <path d="M -19.67749 -3.97358 A 2 0.22939 0 0 1 -19.09171 -4.13578" />
    <path d="M -33.23385 -4.13578 A 2 0.22939 0 0 1 -29.81963 -3.97357 L -29.81963 3.97363" />
    <path d="M -29.81963 -3.97357 A 2 0.22939 0 0 1 -33.81963 -3.97357 L -33.81963 3.97363 A 2 0.22939 180 0 0 -29.81963 3.97363" />
    <path d="M -33.81963 -3.97357 A 2 0.22939 0 0 1 -33.23385 -4.13578" />
    <path d="M -26.16278 -4.13578 A 2 0.22939 0 0 1 -22.74856 -3.97357 L -22.74856 3.97363" />
    <path d="M -22.74856 -3.97357 A 2 0.22939 0 0 1 -26.74856 -3.97357 L -26.74856 3.97363 A 2 0.22939 180 0 0 -22.74856 3.97363" />
    <path d="M -26.74856 -3.97357 A 2 0.22939 0 0 1 -26.16278 -4.13578" />
    <path d="M 29.81998 -3.97359 L 29.81998 3.97361" />
    <path d="M 33.81998 -3.97359 L 33.81998 3.97361" />
    <path d="M 22.74891 -3.97359 L 22.74891 3.97362" />
    <path d="M 26.74891 -3.97359 L 26.74891 3.97362" />
    <path d="M 15.67785 -3.97359 L 15.67785 3.97362" />
    <path d="M 19.67785 -3.97359 L 19.67785 3.97362" />
    <path d="M 8.60678 -3.97359 L 8.60678 3.97362" />
    <path d="M 12.60678 -3.97359 L 12.60678 3.97362" />
    <path d="M 5.53571 -3.97358 L 5.53571 3.97362" />
</svg>