<svg version="1.1" xmlns="http://www.w3.org/2000/svg" viewBox="-25.544872375377423 -7.570398000327824 51.089960569202304 15.140851112438918" fill="none" stroke="black" stroke-width="0.6%" vector-effect="non-scaling-stroke">
    <path d="M 21.67558 -1.83712 A 2 0.24656 0 0 1 24.54509 -1.61508 A 2 0.24656 0 1 1 20.54509 -1.61508 A 2 0.24656 0 0 1 21.67558 -1.83712 Z" />
    <path d="M 20.54509 6.32389 A 2 0.24656 180 0 0 24.54509 6.32389" />
    <path d="M 14.16058 -2.62192 A 2 0.24656 0 0 1 17.03009 -2.39988 A 2 0.24656 0 1 1 13.03009 -2.39988 A 2 0.24656 0 0 1 14.16058 -2.62192 Z" />
    <path d="M 13.03009 5.5391 A 2 0.24656 180 0 0 17.03009 5.5391" />
    <path d="M 6.64559 -3.40671 A 2 0.24656 0 0 1 9.5151 -3.18467 A 2 0.24656 0 1 1 5.5151 -3.18467 A 2 0.24656 0 0 1 6.64559 -3.40671 Z" />
    <path d="M 5.5151 4.75431 A 2 0.24656 180 0 0 9.5151 4.75431" />
    <path d="M -0.8694 -4.1915 A 2 0.24656 0 0 1 2.00011 -3.96946 L 2.00011 3.96952" />
    <path d="M 2.00011 -3.96946 A 2 0.24656 0 1 1 -1.99989 -3.96946 L -1.99989 3.96952 A 2 0.24656 180 0 0 2.00011 3.96952" />
    <path d="M -1.99989 -3.96946 A 2 0.24656 0 0 1 -0.8694 -4.1915" />
    <path d="M -8.3844 -4.97629 A 2 0.24656 0 0 1 -5.51489 -4.75425 L -5.51489 3.18472" />
    <path d="M -5.51489 -4.75425 A 2 0.24656 0 1 1 -9.51489 -4.75425 L -9.51489 3.18472 A 2 0.24656 180 0 0 -5.51489 3.18472" />
    <path d="M -9.51489 -4.75425 A 2 0.24656 0 0 1 -8.3844 -4.97629" />
    <path d="M -23.41438 -6.54588 A 2 0.24656 0 0 1 -20.54487 -6.32384 L -20.54487 1.61514" />
    <path d="M -20.54487 -6.32384 A 2 0.24656 0 1 1 -24.54487 -6.32384 L -24.54487 1.61514 A 2 0.24656 180 0 0 -20.54487 1.61514" />
    <path d="M -24.54487 -6.32384 A 2 0.24656 0 0 1 -23.41438 -6.54588" />
    <path d="M -15.89939 -5.76108 A 2 0.24656 0 0 1 -13.02988 -5.53904 L -13.02988 2.39993" />
    <path d="M -13.02988 -5.53904 A 2 0.24656 0 1 1 -17.02988 -5.53904 L -17.02988 2.39993 A 2 0.24656 180 1 0 -13.02988 2.39993" />
    <path d="M -17.02988 -5.53904 A 2 0.24656 0 0 1 -15.89939 -5.76108" />
    <path d="M 20.54509 -1.61508 L 20.54509 6.32389" />
    <path d="M 24.54509 -1.61508 L 24.54509 6.32389" />
    <path d="M 13.03009 -2.39988 L 13.03009 5.5391" />
    <path d="M 17.03009 -2.39988 L 17.03009 5.5391" />
    <path d="M 5.5151 -3.18467 L 5.5151 4.75431" />
    <path d="M 9.5151 -3.18467 L 9.5151 4.75431" />
</svg>